<mxfile host="app.diagrams.net" modified="2023-07-04T13:06:33.531Z" agent="Mozilla/5.0 (Windows NT 10.0; Win64; x64) AppleWebKit/537.36 (KHTML, like Gecko) Chrome/114.0.0.0 Safari/537.36" etag="2IaEdqg1CKlPOlLQjvOJ" version="21.5.2" type="github">
  <diagram name="第 1 页" id="tYsypDACY3Rca10MZBpi">
    <mxGraphModel dx="1052" dy="642" grid="1" gridSize="10" guides="1" tooltips="1" connect="1" arrows="1" fold="1" page="1" pageScale="1" pageWidth="827" pageHeight="1169" math="1" shadow="0">
      <root>
        <mxCell id="0" />
        <mxCell id="1" parent="0" />
        <mxCell id="F2aO-ynDO_schfaleL4f-1" value="" style="edgeStyle=orthogonalEdgeStyle;rounded=0;orthogonalLoop=1;jettySize=auto;html=1;fillColor=#f8cecc;strokeColor=#b85450;" edge="1" parent="1" source="F2aO-ynDO_schfaleL4f-2" target="F2aO-ynDO_schfaleL4f-4">
          <mxGeometry relative="1" as="geometry" />
        </mxCell>
        <mxCell id="F2aO-ynDO_schfaleL4f-2" value="&lt;span style=&quot;color: rgb(0, 0, 0); font-family: &amp;quot;Times New Roman&amp;quot;; font-size: 16px; font-style: normal; font-variant-ligatures: normal; font-variant-caps: normal; font-weight: 400; letter-spacing: normal; orphans: 2; text-align: center; text-indent: 0px; text-transform: none; widows: 2; word-spacing: 0px; -webkit-text-stroke-width: 0px; text-decoration-thickness: initial; text-decoration-style: initial; text-decoration-color: initial; float: none; display: inline !important;&quot;&gt;PCF in CPS&lt;/span&gt;" style="rounded=0;whiteSpace=wrap;html=1;shadow=1;fillColor=#f8cecc;strokeColor=#b85450;labelBackgroundColor=none;" vertex="1" parent="1">
          <mxGeometry x="290" y="420" width="100" height="60" as="geometry" />
        </mxCell>
        <mxCell id="F2aO-ynDO_schfaleL4f-3" value="" style="edgeStyle=orthogonalEdgeStyle;rounded=0;orthogonalLoop=1;jettySize=auto;html=1;fontColor=none;noLabel=1;shadow=0;strokeColor=#666666;fillColor=#f5f5f5;" edge="1" parent="1" source="F2aO-ynDO_schfaleL4f-4">
          <mxGeometry relative="1" as="geometry">
            <mxPoint x="610" y="450" as="targetPoint" />
          </mxGeometry>
        </mxCell>
        <mxCell id="F2aO-ynDO_schfaleL4f-4" value="&lt;font face=&quot;Times New Roman&quot;&gt;&lt;span style=&quot;font-size: 16px;&quot;&gt;Simplified LLVM IR&lt;/span&gt;&lt;/font&gt;" style="rounded=0;whiteSpace=wrap;html=1;shadow=1;fillColor=#f8cecc;strokeColor=#b85450;labelBackgroundColor=none;" vertex="1" parent="1">
          <mxGeometry x="460" y="420" width="100" height="60" as="geometry" />
        </mxCell>
        <mxCell id="F2aO-ynDO_schfaleL4f-5" value="&lt;font color=&quot;#990000&quot; style=&quot;font-size: 16px;&quot; face=&quot;Times New Roman&quot;&gt;$$\mathcal{G}$$&lt;/font&gt;" style="text;html=1;strokeColor=none;fillColor=none;align=center;verticalAlign=middle;whiteSpace=wrap;rounded=0;" vertex="1" parent="1">
          <mxGeometry x="385" y="420" width="70" height="30" as="geometry" />
        </mxCell>
        <mxCell id="F2aO-ynDO_schfaleL4f-6" value="PCF" style="rounded=0;whiteSpace=wrap;html=1;labelBackgroundColor=none;fontFamily=Times New Roman;fontSize=16;shadow=0;strokeColor=#666666;fontColor=#333333;fillColor=#f5f5f5;" vertex="1" parent="1">
          <mxGeometry x="140" y="420" width="100" height="60" as="geometry" />
        </mxCell>
        <mxCell id="F2aO-ynDO_schfaleL4f-7" value="" style="endArrow=classic;html=1;rounded=0;exitX=1;exitY=0.5;exitDx=0;exitDy=0;entryX=0;entryY=0.5;entryDx=0;entryDy=0;strokeColor=#666666;shadow=0;fontColor=#FFFFFF;fillColor=#f5f5f5;" edge="1" parent="1" source="F2aO-ynDO_schfaleL4f-6" target="F2aO-ynDO_schfaleL4f-2">
          <mxGeometry width="50" height="50" relative="1" as="geometry">
            <mxPoint x="350" y="490" as="sourcePoint" />
            <mxPoint x="400" y="440" as="targetPoint" />
          </mxGeometry>
        </mxCell>
        <mxCell id="F2aO-ynDO_schfaleL4f-8" value="" style="edgeStyle=orthogonalEdgeStyle;rounded=0;orthogonalLoop=1;jettySize=auto;html=1;strokeColor=#666666;shadow=0;fontColor=#FFFFFF;fillColor=#f5f5f5;" edge="1" parent="1" source="F2aO-ynDO_schfaleL4f-9" target="F2aO-ynDO_schfaleL4f-6">
          <mxGeometry relative="1" as="geometry" />
        </mxCell>
        <mxCell id="F2aO-ynDO_schfaleL4f-9" value="PCF Program &lt;br&gt;Text" style="rounded=0;whiteSpace=wrap;html=1;labelBackgroundColor=none;fontFamily=Times New Roman;fontSize=16;shadow=0;strokeColor=#666666;fontColor=#333333;fillColor=#f5f5f5;" vertex="1" parent="1">
          <mxGeometry x="140" y="510" width="100" height="60" as="geometry" />
        </mxCell>
        <mxCell id="F2aO-ynDO_schfaleL4f-10" value="" style="edgeStyle=orthogonalEdgeStyle;rounded=0;orthogonalLoop=1;jettySize=auto;html=1;fontColor=none;noLabel=1;shadow=0;strokeColor=#666666;fillColor=#f5f5f5;labelBackgroundColor=#000000;" edge="1" parent="1">
          <mxGeometry relative="1" as="geometry">
            <mxPoint x="660" y="480" as="sourcePoint" />
            <mxPoint x="660" y="510" as="targetPoint" />
          </mxGeometry>
        </mxCell>
        <mxCell id="F2aO-ynDO_schfaleL4f-11" value="Vellvm &lt;br&gt;LLVM IR" style="rounded=0;whiteSpace=wrap;html=1;labelBackgroundColor=none;fontFamily=Times New Roman;fontSize=16;shadow=0;strokeColor=#666666;fontColor=#333333;fillColor=#f5f5f5;" vertex="1" parent="1">
          <mxGeometry x="610" y="420" width="100" height="60" as="geometry" />
        </mxCell>
        <mxCell id="F2aO-ynDO_schfaleL4f-12" value="LLVM IR&lt;br&gt;Text" style="rounded=0;whiteSpace=wrap;html=1;labelBackgroundColor=none;fontFamily=Times New Roman;fontSize=16;shadow=0;strokeColor=#666666;fontColor=#333333;fillColor=#f5f5f5;" vertex="1" parent="1">
          <mxGeometry x="610" y="510" width="100" height="60" as="geometry" />
        </mxCell>
      </root>
    </mxGraphModel>
  </diagram>
</mxfile>
